<?xml version="1.0" standalone="no"?><!DOCTYPE svg PUBLIC "-//W3C//DTD SVG 1.1//EN" "http://www.w3.org/Graphics/SVG/1.1/DTD/svg11.dtd"><svg t="1630413330487" class="icon" viewBox="0 0 1024 1024" version="1.1" xmlns="http://www.w3.org/2000/svg" p-id="18800" width="64" height="64" xmlns:xlink="http://www.w3.org/1999/xlink"><defs><style type="text/css"></style></defs><path d="M545.5 649.2c-26.4 0-52.9-6.1-77.6-18.6-16.8-8.6-23.6-29.1-15-45.9 8.5-16.9 29.1-23.6 45.9-15 40 20.2 88 12.5 119.8-19.2l161.3-161.3c40.3-40.3 40.4-105.8 0.2-146-40.2-40.2-105.5-40.3-145.6-0.1l-32.8 32.8c-13.3 13.3-34.9 13.3-48.3 0-13.3-13.4-13.3-35 0-48.3l32.8-32.7c66.8-66.7 175.4-66.7 242.2 0.1 32.4 32.4 50.2 75.5 50.1 121.3 0 45.8-17.9 88.9-50.3 121.2L666.9 598.8c-33.1 33-76.9 50.4-121.4 50.4zM319.1 875.4c-45.8 0-88.8-17.8-121.1-50.1-32.4-32.3-50.1-75.4-50.1-121.3 0-45.8 17.9-88.9 50.3-121.2l161.3-161.3c52.7-52.7 132.6-65.5 198.9-31.9 16.8 8.5 23.6 29.1 15 45.9-8.6 16.8-29.1 23.6-45.9 15-39.9-20.2-88-12.5-119.7 19.3L246.5 631.1c-19.5 19.5-30.2 45.4-30.3 73 0 27.6 10.6 53.5 30.1 72.9 19.4 19.4 45.3 30.1 72.8 30.1 27.6 0 53.6-10.7 73-30.2l34.3-34.3c13.3-13.3 35-13.3 48.3 0 13.4 13.4 13.4 35 0 48.3l-34.3 34.3c-32.3 32.4-75.4 50.2-121.3 50.2z" p-id="18801" fill="#17abe3"></path></svg>