<?xml version="1.0" standalone="no"?><!DOCTYPE svg PUBLIC "-//W3C//DTD SVG 1.1//EN" "http://www.w3.org/Graphics/SVG/1.1/DTD/svg11.dtd"><svg t="1628084742307" class="icon" viewBox="0 0 1024 1024" version="1.1" xmlns="http://www.w3.org/2000/svg" p-id="5732" xmlns:xlink="http://www.w3.org/1999/xlink" width="200" height="200"><defs><style type="text/css"></style></defs><path d="M949.077934 708.561528v-63.581607c0-20.686765 16.770413-37.459748 37.459748-37.459748s37.459748 16.772983 37.459748 37.459748v63.581607c0 20.689335-16.770413 37.462318-37.459748 37.462318-20.686765 0.00257-37.459748-16.772983-37.459748-37.462318z" fill="#FF9C9F" p-id="5733"></path><path d="M949.077934 644.979921c0-71.069959-57.82272-128.890109-128.892679-128.890109-71.075098 0-128.897818 57.82015-128.897818 128.890109v85.417066c0 20.686765-16.770413 37.459748-37.459748 37.459748s-37.459748-16.772983-37.459748-37.459748v-85.417066c0-112.384384 91.430361-203.817314 203.819884-203.817314 112.384384 0 203.812175 91.430361 203.812175 203.817314h-74.922066zM476.607644 849.365158h-130.5579c-86.033814 0-156.032172-69.993219-156.032172-156.029603v-84.818306c0-36.678534-29.840337-66.52401-66.52401-66.52401-36.681103 0-66.52401 29.842907-66.52401 66.52401 0 15.73479-12.75641 28.486061-28.486061 28.486061S0 624.25204 0 608.517249c0-68.094148 55.401983-123.496132 123.496132-123.496131 68.096718 0 123.496132 55.401983 123.496131 123.496131v84.818306c0 54.623338 44.439283 99.060051 99.060051 99.060051h130.557899c15.729651 0 28.486061 12.75641 28.486061 28.486061-0.00257 15.73222-12.75898 28.483491-28.48863 28.483491z" fill="#4D3D2D" p-id="5734"></path><path d="M881.621092 855.291081c14.673469 0 26.569001 11.895532 26.569002 26.566431 0 14.676039-11.895532 26.571571-26.569002 26.571572h-82.459243c-14.673469 0-26.569001-11.895532-26.569002-26.571572 0-14.670899 11.895532-26.566432 26.569002-26.566431h82.459243z" fill="#DB8689" p-id="5735"></path><path d="M684.983756 638.018375c-74.672797 0-135.204069 60.533843-135.20407 135.2015 0 74.675366 60.533843 135.206639 135.20407 135.206639h135.201499V773.222444c0-74.670227-60.533843-135.204069-135.201499-135.204069z" fill="#4D3D2D" p-id="5736"></path><path d="M353.61519 602.167312c0-106.486728 86.329339-192.816067 192.816067-192.816067 106.491868 0 192.818637 86.331909 192.818637 192.816067v113.437995c0 106.491868-86.326769 192.823777-192.818637 192.823777-106.486728 0-192.816067-86.331909-192.816067-192.823777v-113.437995z" fill="#65513C" p-id="5737"></path><path d="M681.519686 115.570916c114.013627 0 206.443634 92.427437 206.443634 206.443634 0 114.013627-92.430007 206.443634-206.443634 206.443635h-115.000424c-114.013627 0-206.443634-92.430007-206.443634-206.443635 0-114.016197 92.430007-206.443634 206.443634-206.443634h115.000424z" fill="#65513C" p-id="5738"></path><path d="M876.576605 389.633289a205.968224 205.968224 0 0 0 11.386715-67.618739c0-28.285617-5.699782-55.229807-15.996908-79.776388a158.383525 158.383525 0 0 0-54.947131-26.365989 104.346098 104.346098 0 0 0-59.189845 48.779649c-16.223049-29.380346-46.245841-50.041413-81.31569-53.333307-81.991543 6.259995-146.588215 74.713913-146.588215 158.314141 0 85.298855 67.276957 154.801246 151.65326 158.563411 1.963315 0.156757 3.975457 0.262118 6.100669 0.262118h125.30269c46.389749 0 83.993405-37.606226 83.993404-83.993405-0.00257-20.959162-7.699074-40.114335-20.398949-54.831491z" fill="#FF9C9F" p-id="5739"></path><path d="M647.336413 320.765635m-17.502802 0a17.502802 17.502802 0 1 0 35.005604 0 17.502802 17.502802 0 1 0-35.005604 0Z" fill="#333E48" p-id="5740"></path><path d="M852.695598 320.765635m-17.502801 0a17.502802 17.502802 0 1 0 35.005603 0 17.502802 17.502802 0 1 0-35.005603 0Z" fill="#333E48" p-id="5741"></path><path d="M746.059823 392.932892a6.43474 6.43474 0 0 1-4.558798-1.891361l-10.626059-10.628629a6.450159 6.450159 0 0 1 9.122735-9.117595l10.623489 10.626059a6.450159 6.450159 0 0 1-4.561367 11.011526zM796.2914 392.932892a6.450159 6.450159 0 0 1-4.561368-11.011526l10.620919-10.626059a6.447589 6.447589 0 1 1 9.122735 9.117595l-10.623489 10.628629a6.450159 6.450159 0 0 1-4.558797 1.891361z" fill="#333E48" p-id="5742"></path><path d="M408.968347 244.502142c-42.807469 0-77.512408 34.707509-77.512409 77.512408 0 42.810039 34.704939 77.517548 77.512409 77.517548V244.502142z" fill="#65513C" p-id="5743"></path><path d="M408.968347 274.45041c-26.273476 0-47.56671 21.295804-47.56671 47.56414 0 26.270906 21.293234 47.56928 47.56671 47.56928v-95.13342zM651.476336 855.291081c14.676039 0 26.571571 11.895532 26.571571 26.566431 0 14.676039-11.895532 26.571571-26.571571 26.571572h-82.456674c-14.676039 0-26.569001-11.895532-26.569001-26.571572 0-14.670899 11.892962-26.566432 26.569001-26.566431h82.456674z" fill="#FF9C9F" p-id="5744"></path><path d="M454.838999 638.018375c-74.672797 0-135.204069 60.533843-135.204069 135.2015 0 74.675366 60.533843 135.206639 135.204069 135.206639h135.2015V773.222444c0-74.670227-60.531273-135.204069-135.2015-135.204069z" fill="#65513C" p-id="5745"></path><path d="M417.312437 255.567634H353.73083c-20.689335 0-37.459748-16.775553-37.459748-37.459748 0-20.691904 16.770413-37.459748 37.459748-37.459748h63.579037c20.689335 0 37.462318 16.767844 37.462318 37.459748 0.00257 20.684195-16.772983 37.459748-37.459748 37.459748z" fill="#FF9C9F" p-id="5746"></path><path d="M353.73083 255.567634c-71.072529 0-128.895249 57.82015-128.895249 128.890109 0 71.075098 57.82272 128.897818 128.895249 128.897818h85.414496c20.689335 0 37.459748 16.772983 37.459748 37.459748 0 20.691904-16.770413 37.457178-37.459748 37.457178H353.73083c-112.386953 0-203.819884-91.425222-203.819884-203.817314 0-112.384384 91.430361-203.812175 203.819884-203.812175v74.924636z" fill="#65513C" p-id="5747"></path></svg>