<svg xmlns="http://www.w3.org/2000/svg" viewBox="0 0 89.37 90.71"><defs><style>.cls-1{fill:#2c2c2c;}.cls-2,.cls-5{fill:none;}.cls-2{stroke:#fff;stroke-miterlimit:10;stroke-width:0.6px;}.cls-3{opacity:0.9;}.cls-4{fill:#fff;}</style></defs><title>资源 1</title><g id="图层_2" data-name="图层 2"><g id="图层_1-2" data-name="图层 1"><path class="cls-1" d="M70.17,27.3a24.74,24.74,0,0,1-.6,5.48A25.47,25.47,0,0,1,52.62,51.53a25.44,25.44,0,0,0-7.8-13.64,25.31,25.31,0,0,0-8.06,13.66,25.49,25.49,0,0,1-17.07-19,25,25,0,0,1-.54-5.22,25.51,25.51,0,1,1,51,0Z"/><path class="cls-1" d="M53.16,56.76a25.52,25.52,0,1,1-8.34-18.87,25.31,25.31,0,0,0-8.06,13.66,25.39,25.39,0,0,0,15.86,0A25.08,25.08,0,0,1,53.16,56.76Z"/><path class="cls-1" d="M87.18,57a25.51,25.51,0,0,1-51,0,24.74,24.74,0,0,1,.6-5.48,25.39,25.39,0,0,0,15.86,0,25.44,25.44,0,0,0-7.8-13.64A25.51,25.51,0,0,1,87.18,57Z"/><path class="cls-2" d="M70.17,27.3a24.74,24.74,0,0,1-.6,5.48A25.47,25.47,0,0,1,52.62,51.53a25.44,25.44,0,0,0-7.8-13.64,25.31,25.31,0,0,0-8.06,13.66,25.49,25.49,0,0,1-17.07-19,25,25,0,0,1-.54-5.22,25.51,25.51,0,1,1,51,0Z"/><path class="cls-2" d="M53.16,56.76a25.52,25.52,0,1,1-8.34-18.87,25.31,25.31,0,0,0-8.06,13.66,25.39,25.39,0,0,0,15.86,0A25.08,25.08,0,0,1,53.16,56.76Z"/><g class="cls-3"><path class="cls-4" d="M52.62,51.53a25.39,25.39,0,0,1-15.86,0,25.31,25.31,0,0,1,8.06-13.66A25.44,25.44,0,0,1,52.62,51.53Z"/></g><path class="cls-2" d="M87.18,57a25.51,25.51,0,0,1-51,0,24.74,24.74,0,0,1,.6-5.48,25.39,25.39,0,0,0,15.86,0,25.44,25.44,0,0,0-7.8-13.64A25.51,25.51,0,0,1,87.18,57Z"/><rect class="cls-5" width="89.37" height="90.71"/></g></g></svg>