<?xml version="1.0" standalone="no"?><!DOCTYPE svg PUBLIC "-//W3C//DTD SVG 1.1//EN" "http://www.w3.org/Graphics/SVG/1.1/DTD/svg11.dtd"><svg t="1629690016126" class="icon" viewBox="0 0 1024 1024" version="1.1" xmlns="http://www.w3.org/2000/svg" p-id="6278" width="128" height="128" xmlns:xlink="http://www.w3.org/1999/xlink"><defs><style type="text/css"></style></defs><path d="M513.3 788.2c-5.1 0-10.2-2-14.1-5.9L242.6 525.8c-7.8-7.8-7.8-20.4 0-28.2 7.8-7.8 20.4-7.8 28.2 0l256.6 256.6c7.8 7.8 7.8 20.4 0 28.2-3.8 3.9-9 5.8-14.1 5.8z" p-id="6279" fill="#8a8a8a"></path><path d="M513.3 788.2c-5.1 0-10.2-2-14.1-5.9-7.8-7.8-7.8-20.4 0-28.2L755.3 498c7.8-7.8 20.4-7.8 28.2 0 7.8 7.8 7.8 20.4 0 28.2l-256 256.2c-3.9 3.9-9.1 5.8-14.2 5.8zM818.9 890.6H205.2c-11 0-20-8.9-20-20s8.9-20 20-20h613.6c11 0 20 8.9 20 20s-8.9 20-19.9 20z" p-id="6280" fill="#8a8a8a"></path><path d="M513.3 788.2c-11 0-20-8.9-20-20V153.8c0-11 8.9-20 20-20 11 0 20 8.9 20 20v614.4c0 11.1-8.9 20-20 20z" p-id="6281" fill="#8a8a8a"></path></svg>