<?xml version="1.0" standalone="no"?><!DOCTYPE svg PUBLIC "-//W3C//DTD SVG 1.1//EN" "http://www.w3.org/Graphics/SVG/1.1/DTD/svg11.dtd"><svg t="1634831480613" class="icon" viewBox="0 0 1024 1024" version="1.1" xmlns="http://www.w3.org/2000/svg" p-id="78119" xmlns:xlink="http://www.w3.org/1999/xlink" width="32" height="32"><defs><style type="text/css"></style></defs><path d="M820.48 101.9h-612a51.77 51.77 0 0 0-52.19 52.19v714.82a52.09 52.09 0 0 0 52.19 52.19H821a52.07 52.07 0 0 0 52.19-52.19V154.09c-0.52-29.16-23.54-52.19-52.71-52.19z m1 767.52h-614V153.07h614z" fill="#1E7FFE" p-id="78120"></path><path d="M284.24 387.42h204.67a25.59 25.59 0 1 0 0-51.17H284.24a25.59 25.59 0 0 0 0 51.17z" fill="#F4B426" p-id="78121"></path><path d="M284.24 535.81h460.51a25.59 25.59 0 1 0 0-51.17H284.24a25.59 25.59 0 0 0 0 51.17zM284.24 689.31h460.51a25.59 25.59 0 1 0 0-51.17H284.24a25.59 25.59 0 0 0 0 51.17z" fill="#1E7FFE" p-id="78122"></path></svg>