<?xml version="1.0" standalone="no"?><!DOCTYPE svg PUBLIC "-//W3C//DTD SVG 1.1//EN" "http://www.w3.org/Graphics/SVG/1.1/DTD/svg11.dtd"><svg t="1634830825842" class="icon" viewBox="0 0 1024 1024" version="1.1" xmlns="http://www.w3.org/2000/svg" p-id="52245" xmlns:xlink="http://www.w3.org/1999/xlink" width="64" height="64"><defs><style type="text/css"></style></defs><path d="M216.4736 318.72a188.1088 188.1088 0 1 0 376.2176 0 188.1088 188.1088 0 0 0-376.2176 0z m515.8912 505.2416c0 164.352-655.5648 164.352-655.5648 0s146.7392-263.2704 327.68-263.2704c181.0432 0 327.8848 98.9184 327.8848 263.2704z" fill="#276EF9" p-id="52246"></path><path d="M619.52 513.3312c180.9408 0 327.7824 78.6944 327.68 248.9856 0 60.5696-82.8928 99.584-189.7472 117.0432 17.7664-19.0976 27.8528-41.0624 27.8528-65.8944 0-159.0272-139.0592-258.5088-266.9568-284.5184 20.48-9.728 81.3568-15.616 101.12-15.616z m21.4016-436.5312a188.16 188.16 0 1 1-40.6528 371.7632c27.4432-36.5568 43.9808-81.92 43.9808-131.2256a218.7776 218.7776 0 0 0-123.648-196.9664 187.2896 187.2896 0 0 1 120.32-43.5712z" fill="#ADCDFF" p-id="52247"></path></svg>