<?xml version="1.0" standalone="no"?><!DOCTYPE svg PUBLIC "-//W3C//DTD SVG 1.1//EN" "http://www.w3.org/Graphics/SVG/1.1/DTD/svg11.dtd"><svg t="1634830400062" class="icon" viewBox="0 0 1024 1024" version="1.1" xmlns="http://www.w3.org/2000/svg" p-id="10315" xmlns:xlink="http://www.w3.org/1999/xlink" width="64" height="64"><defs><style type="text/css"></style></defs><path d="M691.6 811.8H377.2c-5.7 0-10.3-4.6-10.3-10.3v-6.9c0-5.7 4.6-10.3 10.3-10.3h314.4c5.7 0 10.3 4.6 10.3 10.3v6.9c0 5.7-4.7 10.3-10.3 10.3zM440 784.3c102.6-88.4 96.6-208.6 67.4-273 54-20.9 70.6-37.7 76.2-91.4 60.1 55.3 54.4 295.3 48.1 364.3l-191.7 0.1z m99.3-427.5c-4.9-2.1-10.1-3.8-15.3-4.9-0.1 0-0.2-0.1-0.3-0.1-5.4-1.1-11.1-1.7-16.8-1.7-45.5 0-82.3 37.2-82.3 83.2 0 5.8 0.7 11.5 1.7 17 0 0.1 0.1 0.2 0.1 0.3 1.1 5.3 2.8 10.6 4.9 15.5L326.2 572.2a35.069 35.069 0 0 1-49.9 0l-74.9-75.7c-13.8-13.9-13.8-36.5 0-50.4l334.9-338.6c13.8-13.9 36.1-13.9 49.9 0l74.9 75.7c13.8 13.9 13.8 36.5 0 50.4L539.3 356.8z" fill="#1976D2" p-id="10316"></path><path d="M504 429.4m-80.2 0a80.2 80.2 0 1 0 160.4 0 80.2 80.2 0 1 0-160.4 0Z" fill="#FFFFFF" p-id="10317"></path><path d="M247.7 444c-8 0-14.4 6.5-14.4 14.4 0 8 6.5 14.4 14.4 14.4 8 0 14.4-6.5 14.4-14.4s-6.4-14.4-14.4-14.4z m304.8-14.6c0 24.1-19.5 43.5-43.5 43.5s-43.5-19.5-43.5-43.5 19.5-43.5 43.5-43.5 43.5 19.5 43.5 43.5z" fill="#42A5F5" p-id="10318"></path><path d="M296.6 676l-3.7 3.6c-4 4-10.6 4-14.6-0.1L99.7 498.7c-4-4-4-10.6 0.1-14.6l3.7-3.6c4-4 10.6-4 14.6 0.1l178.6 180.8c4 4 4 10.6-0.1 14.6z" fill="#00BCD4" p-id="10319"></path><path d="M545.6 790.2l182.1 106.6c4.7 2.8 12.5 2.8 17.3 0l173.4-101.5c4.7-2.8 8.6-9.6 8.6-15.1l0.2-119.3c0-5.5-4.5-10-10-10H545.6" fill="#FFFFFF" p-id="10320"></path><path d="M927.2 650.8s-3.9-2.2-8.7-5L742.9 545.3c-4.8-2.7-12.6-2.7-17.4 0L549.4 645.9c-4.8 2.7-4.8 7.2 0 9.9l175.8 100.6c4.8 2.7 12.6 2.7 17.4 0l176-100.6c4.7-2.7 8.6-5 8.6-5z m-372.9 60.1c-4.8-2.8-8.7-0.5-8.7 5v7.6c0 5.5 3.9 12.3 8.7 15L727.7 839c4.8 2.8 12.5 2.8 17.3 0l173.4-100.5c4.8-2.8 8.7-9.5 8.7-15v-7.6c0-5.5-3.9-7.7-8.7-5L745 811.4c-4.8 2.8-12.5 2.8-17.3 0L554.3 710.9z m-8.7 77.9v17.6c0 5.5 3.9 12.3 8.7 15l173.4 100.5c4.8 2.8 12.5 2.8 17.3 0l173.4-100.5c4.8-2.8 8.7-9.5 8.7-15v-7.6c0-5.5-3.9-7.7-8.7-5L745 894.2c-4.8 2.8-12.5 2.8-17.3 0L554.3 793.8c-4.8-2.8-8.7-5-8.7-5z" fill="#FFA000" p-id="10321"></path></svg>