<?xml version="1.0" standalone="no"?><!DOCTYPE svg PUBLIC "-//W3C//DTD SVG 1.1//EN" "http://www.w3.org/Graphics/SVG/1.1/DTD/svg11.dtd"><svg t="1634714609289" class="icon" viewBox="0 0 1024 1024" version="1.1" xmlns="http://www.w3.org/2000/svg" p-id="4678" xmlns:xlink="http://www.w3.org/1999/xlink" width="64" height="64"><defs><style type="text/css"></style></defs><path d="M861.184 227.584V56.896A1309.696 1309.696 0 0 0 510.912 0C392 2.816 274.112 21.952 160.704 56.896v170.688h116.736v682.624H160.64V1024h700.48v-113.792H744.448V227.584h116.736z m-437.76 56.832H598.4v56.96H423.36v-56.96z m262.656 455.168a57.6 57.6 0 0 1-58.368 56.832H394.176a57.6 57.6 0 0 1-58.368-56.832V512a57.6 57.6 0 0 1 58.368-56.896h233.536A57.6 57.6 0 0 1 686.08 512v227.584z m-58.368-256H394.176A28.8 28.8 0 0 0 364.992 512v227.584A28.8 28.8 0 0 0 394.24 768h233.536a28.8 28.8 0 0 0 29.184-28.416V512a28.8 28.8 0 0 0-29.184-28.416z m-58.432 199.04a58.432 58.432 0 0 1-53.888-35.072 55.808 55.808 0 0 1 12.608-62.016 59.52 59.52 0 0 1 63.616-12.288c21.824 8.768 36.096 29.504 36.096 52.48a57.6 57.6 0 0 1-58.432 56.96z" p-id="4679" fill="#707070"></path></svg>