<?xml version="1.0" standalone="no"?><!DOCTYPE svg PUBLIC "-//W3C//DTD SVG 1.1//EN" "http://www.w3.org/Graphics/SVG/1.1/DTD/svg11.dtd"><svg t="1634831572435" class="icon" viewBox="0 0 1024 1024" version="1.1" xmlns="http://www.w3.org/2000/svg" p-id="81728" xmlns:xlink="http://www.w3.org/1999/xlink" width="32" height="32"><defs><style type="text/css"></style></defs><path d="M865.92 420.48h50.346667v161.28h-50.346667z" fill="#FF354A" p-id="81729"></path><path d="M876.16 627.84l-32.853333-32.853333a21.248 21.248 0 0 1 0-30.08l32.853333-32.853334a21.248 21.248 0 0 1 30.08 0l32.853333 32.853334c8.32 8.32 8.32 21.76 0 30.08l-32.853333 32.853333a21.248 21.248 0 0 1-30.08 0z" fill="#FF354A" p-id="81730"></path><path d="M744.96 809.173333l-83.2 37.76a377.898667 377.898667 0 0 1-312.96 0l-83.2-37.76a64.021333 64.021333 0 0 1-37.546667-58.24V363.52h554.453334v387.2c0 25.173333-14.72 48-37.546667 58.453333z" fill="#FCCA1E" p-id="81731"></path><path d="M895.36 440.32l-331.306667 165.333333c-37.12 18.56-80.64 18.56-117.546666 0L114.986667 440.32c-48.64-24.32-48.64-93.653333 0-117.973333l331.306666-165.333334c37.12-18.56 80.64-18.56 117.546667 0l331.306667 165.333334c48.853333 24.32 48.853333 93.653333 0.213333 117.973333z" fill="#2953FF" p-id="81732"></path></svg>